<?xml version="1.0" standalone="no"?>
<!DOCTYPE svg PUBLIC "-//W3C//DTD SVG 20010904//EN"
 "http://www.w3.org/TR/2001/REC-SVG-20010904/DTD/svg10.dtd">
<svg version="1.0" xmlns="http://www.w3.org/2000/svg"
 width="512.000000pt" height="512.000000pt" viewBox="0 0 512.000000 512.000000"
 preserveAspectRatio="xMidYMid meet">
<metadata>
Created by potrace 1.11, written by Peter Selinger 2001-2013
</metadata>
<g transform="translate(0.000000,512.000000) scale(0.100000,-0.100000)"
fill="#000000" stroke="none">
<path d="M2534 5095 c-9 -14 -17 -39 -16 -55 2 -66 48 -111 227 -223 50 -31
108 -74 130 -97 33 -34 40 -47 40 -82 0 -36 -6 -46 -49 -84 -71 -65 -92 -62
-180 29 -39 39 -88 97 -108 129 -45 67 -91 105 -186 153 -112 57 -183 76 -312
82 l-115 5 -132 -45 c-247 -85 -383 -155 -383 -200 0 -52 89 -53 320 -3 258
55 315 61 393 40 9 -3 22 -14 27 -24 18 -34 -13 -81 -119 -179 -56 -52 -111
-111 -122 -132 -24 -49 -24 -115 0 -156 68 -110 365 -198 476 -140 32 16 35
27 35 125 0 146 29 190 117 178 64 -9 389 -175 452 -232 101 -90 89 -161 -46
-287 -43 -41 -139 -130 -213 -198 -158 -147 -267 -269 -304 -342 -34 -69 -35
-143 -1 -254 14 -46 23 -88 20 -93 -3 -6 -19 -10 -35 -10 -29 0 -56 22 -116
92 -38 44 -90 61 -194 61 -89 0 -133 -16 -196 -75 -84 -77 -98 -150 -43 -213
44 -50 71 -62 183 -80 54 -8 114 -24 135 -35 81 -41 201 -208 203 -282 3 -95
-99 -34 -198 119 -72 111 -85 117 -233 109 -102 -6 -124 -5 -183 14 -94 29
-152 79 -232 198 -80 121 -112 150 -275 257 -154 101 -206 155 -294 301 -55
92 -95 193 -131 333 -18 69 -43 146 -56 171 -23 46 -121 192 -163 244 l-23 29
-71 -89 c-303 -383 -486 -826 -543 -1314 -15 -122 -15 -438 0 -560 39 -339
133 -639 294 -935 361 -668 1005 -1144 1743 -1289 189 -37 297 -47 503 -47
447 0 828 95 1215 305 793 428 1290 1220 1339 2133 l6 112 -102 -35 c-145 -49
-298 -77 -375 -69 -110 11 -180 76 -218 201 -79 263 66 605 275 649 49 10 60
22 60 63 0 30 -9 43 -71 101 -40 36 -78 80 -85 98 -30 71 -10 176 57 301 21
41 39 78 39 84 0 16 -100 153 -188 258 -94 112 -234 249 -351 344 -125 100
-122 99 -280 94 -165 -4 -188 -14 -309 -123 -96 -87 -127 -105 -181 -105 -54
0 -92 34 -136 123 -46 94 -75 213 -77 309 0 64 4 87 24 127 l24 49 -80 21
c-108 27 -334 58 -478 65 l-117 7 -17 -26z m428 -2599 c122 -31 218 -81 305
-158 122 -108 144 -120 318 -168 182 -51 243 -118 223 -246 -11 -74 -55 -157
-204 -382 -182 -276 -251 -363 -439 -547 -192 -188 -209 -213 -250 -368 -40
-147 -29 -244 31 -284 13 -8 24 -21 24 -28 0 -19 -49 -55 -75 -55 -34 0 -101
54 -140 112 -76 116 -84 232 -31 440 60 233 98 478 100 643 1 131 -7 151 -91
221 -207 171 -251 257 -240 459 11 188 74 320 182 379 41 22 158 15 287 -18z"/>
</g>
</svg>
